<?xml version="1.0" standalone="no"?><!DOCTYPE svg PUBLIC "-//W3C//DTD SVG 1.1//EN" "http://www.w3.org/Graphics/SVG/1.1/DTD/svg11.dtd"><svg t="1595387581294" class="icon" viewBox="0 0 1024 1024" version="1.1" xmlns="http://www.w3.org/2000/svg" p-id="5160" xmlns:xlink="http://www.w3.org/1999/xlink" width="200" height="200"><defs><style type="text/css"></style></defs><path d="M513.1 64.2c-247.4 0-448 200.6-448 448s200.6 448 448 448 448-200.6 448-448-200.6-448-448-448z m140.2 610.6v76H371.8v-76L544.1 474c16-18.6 24-37.3 24-55.9 0-17.3-4.9-31.3-14.6-41.9-9.7-10.6-23.4-15.9-41.1-15.9-37.6 0-56.4 19.7-56.4 59.1h-84.2c0-41.2 13.6-74.3 40.9-99.5 26-23.8 59.4-35.8 100.1-35.8 41.6 0 75.4 12.1 101.4 36.4 26 24.3 39 57 39 98.1 0 20.8-4.3 39.4-13 55.9-6.1 12.6-18.2 29.2-36.4 50L474.5 674.8h178.8z" p-id="5161" fill="#1296db"></path></svg>