<?xml version="1.0" standalone="no"?><!DOCTYPE svg PUBLIC "-//W3C//DTD SVG 1.1//EN" "http://www.w3.org/Graphics/SVG/1.1/DTD/svg11.dtd"><svg t="1595387692571" class="icon" viewBox="0 0 1024 1024" version="1.1" xmlns="http://www.w3.org/2000/svg" p-id="7973" xmlns:xlink="http://www.w3.org/1999/xlink" width="200" height="200"><defs><style type="text/css"></style></defs><path d="M512.047072 962.876897c-248.353344 0-449.657116-201.848171-449.657116-450.831872 0-249.074775 201.304795-450.921923 449.657116-450.921923 248.25613 0 449.562972 201.847148 449.562972 450.921923C961.610044 761.028727 760.303202 962.876897 512.047072 962.876897L512.047072 962.876897zM662.23056 566.962799l-55.094806 0L607.135754 282.96463l-71.746044 0L341.768921 567.233975l0 74.460876 182.672436 0 0 90.02127 82.694397 0 0-90.02127 55.094806 0L662.23056 566.962799 662.23056 566.962799zM524.441357 414.153508l0 152.809291L421.74951 566.962799 524.441357 414.153508 524.441357 414.153508z" p-id="7974" fill="#d81e06"></path></svg>