<?xml version="1.0" standalone="no"?><!DOCTYPE svg PUBLIC "-//W3C//DTD SVG 1.1//EN" "http://www.w3.org/Graphics/SVG/1.1/DTD/svg11.dtd"><svg t="1594966359883" class="icon" viewBox="0 0 1024 1024" version="1.1" xmlns="http://www.w3.org/2000/svg" p-id="5342" xmlns:xlink="http://www.w3.org/1999/xlink" width="200" height="200"><defs><style type="text/css"></style></defs><path d="M182.889139 166.507187h658.221722c72.438945 0 131.567554 59.256593 131.567554 131.695538v575.928009c0 46.074241-36.219473 82.293713-82.293713 82.293713H182.889139C110.450194 956.296463 51.193601 897.167854 51.193601 824.728909V298.202725C51.193601 225.76378 110.450194 166.507187 182.889139 166.507187z" fill="#FFBB96" p-id="5343"></path><path d="M182.889139 166.507187h658.221722c72.438945 0 131.567554 59.256593 131.567554 131.695538v411.340582l-131.567554 118.513186-3.327584 3.327584-131.695538 125.04037H182.889139C110.450194 956.296463 51.193601 897.167854 51.193601 824.728909V298.202725C51.193601 225.76378 110.450194 166.507187 182.889139 166.507187z" fill="#CF5A1A" p-id="5344"></path><path d="M182.889139 166.507187h658.221722c72.438945 0 131.567554 59.256593 131.567554 131.695538v411.340582H791.709036c-46.074241 0-82.293713 36.219473-82.293713 82.293713v164.587427H182.889139C110.450194 956.296463 51.193601 897.167854 51.193601 824.728909V298.202725C51.193601 225.76378 110.450194 166.507187 182.889139 166.507187z" fill="#FF7A45" p-id="5345"></path><path d="M347.348581 67.831521c19.709536 0 32.891889 13.182352 32.891889 32.891889v151.405074c0 19.709536-13.182352 32.891889-32.891889 32.891888s-32.891889-13.182352-32.891888-32.891888V100.72341c0-19.83752 13.182352-32.891889 32.891888-32.891889z m329.174854 0c19.709536 0 32.891889 13.182352 32.891888 32.891889v151.405074c0 19.709536-13.182352 32.891889-32.891888 32.891888s-32.891889-13.182352-32.891889-32.891888V100.72341c0-19.83752 13.054368-32.891889 32.891889-32.891889zM281.564804 495.554056c0 27.260592 22.141232 49.401825 49.401825 49.401825s49.401825-22.141232 49.401825-49.401825-22.141232-49.401825-49.401825-49.401825-49.401825 22.141232-49.401825 49.401825z m230.371204-32.891889h197.479315c19.709536 0 32.891889 13.182352 32.891889 32.891889s-13.182352 32.891889-32.891889 32.891888H511.936008c-19.709536 0-32.891889-13.182352-32.891889-32.891888s13.182352-32.891889 32.891889-32.891889z m0 164.587427h197.479315c19.709536 0 32.891889 13.182352 32.891889 32.891888 0 19.709536-13.182352 32.891889-32.891889 32.891889H511.936008c-19.709536 0-32.891889-13.182352-32.891889-32.891889 0-19.709536 13.182352-32.891889 32.891889-32.891888z m-230.371204 32.891888c0 27.260592 22.141232 49.401825 49.401825 49.401825s49.401825-22.141232 49.401825-49.401825-22.141232-49.401825-49.401825-49.401824-49.401825 22.141232-49.401825 49.401824z" fill="#FFFFFF" p-id="5346"></path></svg>